<svg width="55" height="56" viewBox="0 0 55 56" fill="none" xmlns="http://www.w3.org/2000/svg">
<path d="M47.4048 43.6621C49.5 43.6621 51.1762 42.0907 51.1762 39.9954V17.1573C51.1762 15.2716 49.6048 13.5954 47.6143 13.4907H7.70004H7.38576C5.39528 13.5954 3.82385 15.1669 3.82385 17.1573V39.9954C3.82385 40.9383 4.2429 41.8812 4.87147 42.6145C5.6048 43.2431 6.54766 43.6621 7.49052 43.6621H47.4048ZM5.6048 27.7383V20.824H36.0905L32.6334 27.7383H5.6048ZM34.6239 27.7383L37.9762 20.824H40.3858L36.9286 27.7383H34.6239ZM49.5 17.1573V19.1478H5.6048V17.1573C5.6048 16.1097 6.33814 15.2716 7.38576 15.1669H47.3H47.6143C48.6619 15.2716 49.5 16.1097 49.5 17.1573ZM49.5 20.824V27.7383H38.8143L42.2715 20.824H49.5ZM49.5 29.4145V39.9954C49.3953 41.0431 48.5572 41.9859 47.4048 41.9859H7.49052C6.96671 41.9859 6.54766 41.7764 6.12861 41.3573C5.70957 41.0431 5.50004 40.5193 5.6048 39.9954V29.4145H49.5ZM24.6715 36.5383C25.0905 36.5383 25.5096 36.224 25.5096 35.7002C25.5096 35.2812 25.0905 34.8621 24.6715 34.8621H10.4239C9.90004 34.8621 9.58576 35.2812 9.58576 35.7002C9.58576 36.224 9.90004 36.5383 10.4239 36.5383H24.6715Z" fill="#FF3500"/>
</svg>
