<svg width="55" height="56" viewBox="0 0 55 56" fill="none" xmlns="http://www.w3.org/2000/svg">
<path d="M44.8905 39.5757C46.9857 39.5757 48.7667 41.3567 48.7667 43.4519C48.7667 44.4996 48.3476 45.4424 47.6143 46.1757C46.881 46.9091 45.9381 47.3281 44.8905 47.3281C42.7952 47.3281 41.0143 45.6519 41.0143 43.4519C41.0143 42.7186 41.3286 41.9853 41.7476 41.3567H21.0048C21.3191 41.9853 21.6333 42.7186 21.6333 43.4519C21.6333 44.4996 21.2143 45.4424 20.481 46.1757C19.7476 46.9091 18.8048 47.3281 17.7571 47.3281C15.6619 47.3281 13.881 45.6519 13.881 43.4519C13.881 42.4043 14.3 41.4615 15.0333 40.7281C15.1381 40.6234 15.3476 40.6234 15.4524 40.5186C14.5095 39.7853 13.881 38.7376 13.881 37.4805C13.881 36.4329 14.3 35.49 15.0333 34.7567C15.5571 34.3376 16.081 34.0234 16.7095 33.8138L12.4143 16.8424L11.1571 11.6043H5.91905C5.39524 11.6043 4.9762 11.1853 4.9762 10.6615C4.9762 10.1376 5.39524 9.82336 5.91905 9.82336H11.7857C12.2048 9.82336 12.6238 10.0329 12.7286 10.4519L13.9857 15.7948H49.081C49.3952 15.7948 49.6048 15.8996 49.8143 16.1091C49.9191 16.3186 50.0238 16.6329 49.9191 16.8424L45.5191 34.7567C45.4143 35.1757 44.9952 35.3853 44.5762 35.3853H17.7571C17.2333 35.3853 16.7095 35.5948 16.2905 36.0138C15.8714 36.4329 15.6619 36.9567 15.6619 37.4805C15.6619 38.6329 16.6048 39.5757 17.7571 39.5757H44.8905ZM47.9286 17.471H14.4048L18.4905 33.6043H43.9476L47.9286 17.471ZM19.8524 43.4519C19.8524 42.2996 18.9095 41.3567 17.7571 41.3567C17.2333 41.3567 16.7095 41.5662 16.2905 41.9853C15.8714 42.4043 15.6619 42.9281 15.6619 43.4519C15.6619 44.6043 16.6048 45.5472 17.7571 45.5472C18.3857 45.5472 18.9095 45.3376 19.2238 44.9186C19.6429 44.6043 19.8524 44.0805 19.8524 43.4519ZM46.3572 44.9186C46.7762 44.6043 46.9857 44.0805 46.9857 43.4519C46.9857 42.2996 46.0429 41.3567 44.8905 41.3567C44.3667 41.3567 43.8429 41.5662 43.4238 41.9853C43.0048 42.4043 42.7952 42.9281 42.7952 43.4519C42.7952 44.6043 43.7381 45.5472 44.8905 45.5472C45.4143 45.5472 45.9381 45.3376 46.3572 44.9186Z" fill="#FF3500"/>
</svg>
