<svg width="55" height="56" viewBox="0 0 55 56" fill="none" xmlns="http://www.w3.org/2000/svg">
<path d="M52.5381 28.7855V28.6807V28.5759V17.1569C52.5381 16.7379 52.119 16.3188 51.7 16.3188H35.5667V11.4998C35.5667 10.9759 35.1476 10.6617 34.6238 10.6617H23.2048C22.8905 10.6617 22.681 10.7664 22.4714 11.0807L5.39524 39.5759C5.29048 39.7855 5.29048 40.0998 5.39524 40.414C5.5 40.6236 5.81429 40.8331 6.12857 40.8331H8.95714C9.48095 40.8331 9.9 40.414 9.9 39.995C9.9 39.4712 9.48095 39.1569 8.95714 39.1569H7.59524L23.7286 12.3379H33.7857V33.6045C33.7857 34.1283 34.2048 34.4426 34.6238 34.4426C35.1476 34.4426 35.5667 34.1283 35.5667 33.6045V18.0998H42.3762V28.6807C42.3762 29.0998 42.6905 29.5188 43.2143 29.5188H50.8619V39.1569H48.8714C48.3476 39.1569 48.0333 39.4712 48.0333 39.995C48.0333 40.414 48.3476 40.8331 48.8714 40.8331H51.7C52.119 40.8331 52.5381 40.414 52.5381 39.995V28.7855ZM50.8619 18.0998V27.7379H44.0524V18.0998H50.8619ZM14.719 18.0998C15.1381 18.0998 15.5571 17.6807 15.5571 17.2617C15.5571 16.7379 15.1381 16.4236 14.719 16.4236H3.3C2.77619 16.4236 2.46191 16.7379 2.46191 17.2617C2.46191 17.6807 2.77619 18.0998 3.3 18.0998H14.719ZM3.3 22.0807C2.77619 22.0807 2.46191 22.4998 2.46191 22.9188C2.46191 23.4426 2.77619 23.7569 3.3 23.7569H11.2619C11.681 23.7569 12.1 23.4426 12.1 22.9188C12.1 22.4998 11.681 22.0807 11.2619 22.0807H3.3ZM3.3 27.7379C2.77619 27.7379 2.46191 28.1569 2.46191 28.5759C2.46191 29.0998 2.77619 29.414 3.3 29.414H7.80476C8.32857 29.414 8.74762 29.0998 8.74762 28.5759C8.74762 28.1569 8.32857 27.7379 7.80476 27.7379H3.3ZM17.5476 33.395C13.881 33.395 10.9476 36.3283 10.9476 39.995C10.9476 43.5569 13.881 46.4902 17.5476 46.4902C21.1095 46.4902 24.0429 43.5569 24.0429 39.995C24.0429 36.3283 21.1095 33.395 17.5476 33.395ZM17.5476 44.814C14.8238 44.814 12.7286 42.614 12.7286 39.995C12.7286 37.2712 14.8238 35.1759 17.5476 35.1759C20.1667 35.1759 22.3667 37.2712 22.3667 39.995C22.3667 42.614 20.1667 44.814 17.5476 44.814ZM26.0333 39.1569C25.6143 39.1569 25.1952 39.4712 25.1952 39.995C25.1952 40.414 25.6143 40.8331 26.0333 40.8331H31.7952C32.319 40.8331 32.6333 40.414 32.6333 39.995C32.6333 39.4712 32.319 39.1569 31.7952 39.1569H26.0333ZM40.281 33.395C36.7191 33.395 33.7857 36.3283 33.7857 39.995C33.7857 43.5569 36.7191 46.4902 40.281 46.4902C43.9476 46.4902 46.881 43.5569 46.881 39.995C46.881 36.3283 43.9476 33.395 40.281 33.395ZM40.281 44.814C37.6619 44.814 35.4619 42.614 35.4619 39.995C35.4619 37.2712 37.6619 35.1759 40.281 35.1759C43.0048 35.1759 45.2048 37.2712 45.2048 39.995C45.2048 42.614 43.0048 44.814 40.281 44.814Z" fill="#FF3500"/>
</svg>
