<svg width="20" height="20" viewBox="0 0 20 20" fill="none" xmlns="http://www.w3.org/2000/svg">
<path d="M14 19.5H6C2.96 19.5 0.5 17.04 0.5 14V6C0.5 2.96 2.96 0.5 6 0.5H14C17.04 0.5 19.48 2.96 19.5 6V14C19.5 17.04 17.04 19.5 14 19.5ZM6 2.42C4.02 2.42 2.42 4.02 2.42 6V14C2.42 15.98 4.02 17.58 6 17.58H14C15.98 17.58 17.58 15.98 17.58 14V6C17.58 4.02 15.98 2.42 14 2.42H6Z" fill="white"/>
<path d="M10.0001 14.7992C7.34007 14.7992 5.20007 12.6392 5.20007 9.99922C5.20007 7.35922 7.36007 5.19922 10.0001 5.19922C12.6401 5.19922 14.8001 7.35922 14.8001 9.99922C14.8001 12.6592 12.6601 14.7992 10.0001 14.7992ZM10.0001 6.77922C8.22007 6.77922 6.78007 8.21922 6.78007 9.99922C6.78007 11.7792 8.22007 13.2192 10.0001 13.2192C11.7801 13.2192 13.2201 11.7792 13.2201 9.99922C13.2001 8.21922 11.7801 6.79922 10.0001 6.77922Z" fill="white"/>
<path d="M16.02 4.95984C16.02 5.57984 15.52 6.07984 14.9 6.07984C14.28 6.07984 13.78 5.57984 13.78 4.95984C13.78 4.33984 14.28 3.83984 14.9 3.83984C15.52 3.83984 16.02 4.33984 16.02 4.95984Z" fill="white"/>
</svg>
