<svg width="20" height="20" viewBox="0 0 20 20" fill="none" xmlns="http://www.w3.org/2000/svg">
<path d="M4.90014 6.95898H1.02014V19.219H4.90014V6.95898Z" fill="white"/>
<path d="M3.45009 5.1698C4.64833 4.91012 5.40918 3.72824 5.1495 2.53C4.88981 1.33176 3.70793 0.570903 2.50969 0.830585C1.31145 1.09027 0.550602 2.27215 0.810284 3.47039C1.06997 4.66863 2.25185 5.42948 3.45009 5.1698Z" fill="white"/>
<path d="M14.8598 6.60156C11.8598 6.60156 11.0198 8.64156 11.0198 8.64156V6.96156H7.2998V19.2216H11.1798V12.8016C11.1798 11.9216 11.4398 9.96156 13.4398 9.96156C15.4398 9.96156 15.4398 12.2816 15.4398 12.2816V19.2416H19.2598C19.2598 19.2416 19.2598 15.4216 19.2598 11.9616C19.2398 8.50156 17.8598 6.60156 14.8598 6.60156Z" fill="white"/>
</svg>
