<svg width="14" height="13" viewBox="0 0 14 13" fill="none" xmlns="http://www.w3.org/2000/svg">
<path d="M1.45946 11.817C1.45988 11.8469 1.46618 11.8764 1.478 11.9038C1.48982 11.9313 1.50693 11.9561 1.52835 11.977C1.54978 11.9978 1.5751 12.0142 1.60286 12.0252C1.63062 12.0363 1.66029 12.0417 1.69017 12.0413H12.3089C12.3388 12.0418 12.3685 12.0363 12.3963 12.0253C12.4241 12.0143 12.4494 11.9979 12.4709 11.9771C12.4923 11.9562 12.5095 11.9314 12.5213 11.9039C12.5331 11.8764 12.5395 11.8469 12.5399 11.817V11.5493C12.5451 11.4685 12.5559 11.066 12.2905 10.6206C12.1231 10.3397 11.8801 10.0974 11.5683 9.8996C11.1912 9.66044 10.7114 9.48748 10.131 9.38335C9.83635 9.34201 9.54408 9.28516 9.25542 9.21302C8.48775 9.01702 8.42067 8.84348 8.42008 8.84173C8.41556 8.82462 8.4091 8.80808 8.40083 8.79243C8.39442 8.76035 8.37896 8.63844 8.40871 8.31206C8.48396 7.48285 8.92875 6.99285 9.28604 6.5991C9.39863 6.47514 9.50508 6.3576 9.58704 6.24268C9.94083 5.74685 9.9735 5.18248 9.97496 5.14748C9.97629 5.08546 9.96773 5.02363 9.94958 4.96431C9.91458 4.85639 9.84954 4.78931 9.80171 4.73973C9.7904 4.72836 9.77941 4.71669 9.76875 4.70473C9.76525 4.70064 9.75592 4.68956 9.76438 4.63385C9.79298 4.45439 9.81274 4.27363 9.82358 4.09223C9.83992 3.79998 9.85246 3.36306 9.77692 2.93752C9.76586 2.85623 9.74909 2.77583 9.72675 2.69689C9.64742 2.40386 9.51908 2.154 9.34175 1.94731C9.31113 1.91377 8.56796 1.13064 6.4105 0.970226C6.11213 0.948059 5.81725 0.960018 5.52675 0.974893C5.44084 0.976822 5.35534 0.987375 5.27154 1.00639C5.04871 1.06385 4.98921 1.20502 4.97375 1.28406C4.94779 1.41531 4.99329 1.51681 5.02333 1.58448C5.02771 1.5941 5.03325 1.60606 5.02363 1.63756C4.97375 1.71514 4.89471 1.78514 4.8145 1.85135C4.79117 1.87089 4.25042 2.33756 4.22067 2.94685C4.14046 3.41031 4.14629 4.13218 4.24108 4.63123C4.24692 4.65893 4.25479 4.69977 4.24167 4.72748C4.13958 4.81877 4.02408 4.92231 4.02438 5.15856C4.02554 5.18248 4.0585 5.74656 4.41229 6.24268C4.49396 6.3576 4.60042 6.47485 4.71271 6.59881L4.71329 6.5991C5.07058 6.99285 5.51538 7.48285 5.59063 8.31177C5.62008 8.63843 5.60463 8.76006 5.5985 8.79243C5.59014 8.80807 5.58358 8.82461 5.57896 8.84173C5.57867 8.84348 5.51188 9.01643 4.74771 9.21214C4.30671 9.32502 3.87271 9.38277 3.85958 9.38423C3.2955 9.4796 2.81863 9.64848 2.44208 9.88619C2.13146 10.0825 1.88792 10.3257 1.71875 10.6086C1.44808 11.0607 1.45538 11.4726 1.45917 11.5478L1.45946 11.817Z" stroke="white" stroke-linejoin="round"/>
</svg>
