<svg width="55" height="56" viewBox="0 0 55 56" fill="none" xmlns="http://www.w3.org/2000/svg">
<path d="M16.3952 24.1771L10.319 33.6057H10.2143C10.2143 33.7105 10.1095 33.8152 10.0048 33.92H9.79523C9.79523 34.0247 9.69047 34.0247 9.58571 34.0247H9.48094H9.37618H8.95713L8.85237 33.92C8.74761 33.8152 8.64285 33.8152 8.53809 33.7105L1.20475 25.2247C0.785706 24.8057 0.890468 24.0724 1.30952 23.6533C1.72856 23.2343 2.4619 23.339 2.88094 23.7581L7.80475 29.4152C7.59523 25.4343 8.64285 21.4533 10.7381 17.9962C13.5667 13.3866 17.9667 10.2438 23.2048 8.98664C30.4333 7.31045 37.9762 9.71998 42.9 15.2724C43.319 15.6914 43.319 16.4247 42.7952 16.8438C42.3762 17.2628 41.6428 17.1581 41.2238 16.739C36.8238 11.8152 30.119 9.61522 23.7286 11.1866C19.119 12.2343 15.1381 15.1676 12.6238 19.1485C10.6333 22.3962 9.79523 26.1676 10.0048 29.8343L14.5095 22.92C14.8238 22.3962 15.5571 22.2914 15.9762 22.6057C16.5 22.92 16.7095 23.6533 16.3952 24.1771ZM53.9 35.0724C54.2143 35.5962 54.1095 36.3295 53.5857 36.6438C53.3762 36.7485 53.1667 36.8533 52.9571 36.8533C52.6428 36.8533 52.2238 36.6438 52.0143 36.3295L47.9286 30.1485C47.1952 38.739 41.119 46.0724 32.5286 48.1676C30.9571 48.4819 29.3857 48.6914 27.8143 48.6914C22.5762 48.6914 17.5476 46.7009 13.6714 42.9295C13.2524 42.4057 13.2524 41.7771 13.6714 41.3581C14.0905 40.8343 14.8238 40.8343 15.2428 41.2533C19.7476 45.6533 25.9286 47.4343 32.0048 45.9676C39.8619 44.0819 45.3095 37.2724 45.7286 29.4152L40.3857 35.7009C40.0714 36.2247 39.3381 36.2247 38.8143 35.9105C38.3952 35.4914 38.2905 34.7581 38.7095 34.339L45.8333 25.7485L46.1476 25.4343C46.3571 25.4343 46.4619 25.3295 46.5667 25.3295H46.7762H46.8809C46.9857 25.3295 47.0905 25.4343 47.1952 25.4343C47.1952 25.4343 47.3 25.4343 47.3 25.539C47.4048 25.539 47.5095 25.6438 47.6143 25.7485V25.8533L53.9 35.0724Z" fill="#FF3500"/>
</svg>
