<svg width="20" height="20" viewBox="0 0 20 20" fill="none" xmlns="http://www.w3.org/2000/svg">
<path d="M9.7604 6.89939C4.7804 6.77939 1.4004 2.69939 1.4004 2.69939C1.4004 2.69939 -0.3396 5.95939 2.6004 8.05939C2.0004 8.07939 1.4004 7.91939 0.8804 7.61939C0.8804 7.61939 0.520401 10.6594 3.9804 11.6194C3.9804 11.6194 3.7604 11.8794 2.3004 11.7594C2.8004 13.3794 4.3004 14.4994 6.0004 14.5194C6.0004 14.5194 4.1604 16.4994 0.1604 16.2794C4.2004 18.7794 9.3604 18.6194 13.2404 15.8994C15.5204 14.3194 18.2404 9.93939 17.8604 5.95939C18.6604 5.41939 19.3204 4.69939 19.8204 3.87939C19.8204 3.87939 19.3004 4.09939 18.7404 4.25939C18.3804 4.35939 18.0004 4.43939 17.6204 4.47939C17.6204 4.47939 19.1204 3.43939 19.3004 2.25939C18.5204 2.69939 17.6804 3.01939 16.8004 3.21939H16.7804C15.2404 1.55939 12.6404 1.47939 11.0004 3.03939C9.9604 4.01939 9.5004 5.47939 9.8204 6.89939H9.7604Z" fill="white"/>
</svg>
